PathFileType	4	(X/Y/Z)	E:\Studenten\Marcel_BSc\Ayumi_25_09_2024\25-09-2024\sumo_dl_80kg.trc
DataRate	CameraRate	NumFrames	NumMarkers	Units	OrigDataRate	OrigDataStartFrame	OrigNumFrames
200.0	200.0	5	52	mm	200.0	2121	2827	
Frame#	Time	RSACR			LSACR			USACR			LBAR			RBAR			RHEE			RMT1			RMT5			RMT2			LHEE			LMT1			LMT5			LMT2			LMMAL			LLMAL			LTIB4			LTIB2			LTIB3			LTIB1			RMMAL			RLMAL			RTIB1			RTIB2			RTIB3			RTHI1			RTHI4			RTHI3			RTHI2			LTHI1			LTHI4			LTHI3			LTHI2			FHD			LBHD			RBHD			C7			T10			CLAV			LSHO			RSHO			LRAD			LUL			LRFIN			RRAD			RUL			RUFIN			LDUPA			LMUPA			LUUPA			RDUPA			RUUPA			RMUPA			
		X1	Y1	Z1	X2	Y2	Z2	X3	Y3	Z3	X4	Y4	Z4	X5	Y5	Z5	X6	Y6	Z6	X7	Y7	Z7	X8	Y8	Z8	X9	Y9	Z9	X10	Y10	Z10	X11	Y11	Z11	X12	Y12	Z12	X13	Y13	Z13	X14	Y14	Z14	X15	Y15	Z15	X16	Y16	Z16	X17	Y17	Z17	X18	Y18	Z18	X19	Y19	Z19	X20	Y20	Z20	X21	Y21	Z21	X22	Y22	Z22	X23	Y23	Z23	X24	Y24	Z24	X25	Y25	Z25	X26	Y26	Z26	X27	Y27	Z27	X28	Y28	Z28	X29	Y29	Z29	X30	Y30	Z30	X31	Y31	Z31	X32	Y32	Z32	X33	Y33	Z33	X34	Y34	Z34	X35	Y35	Z35	X36	Y36	Z36	X37	Y37	Z37	X38	Y38	Z38	X39	Y39	Z39	X40	Y40	Z40	X41	Y41	Z41	X42	Y42	Z42	X43	Y43	Z43	X44	Y44	Z44	X45	Y45	Z45	X46	Y46	Z46	X47	Y47	Z47	X48	Y48	Z48	X49	Y49	Z49	X50	Y50	Z50	X51	Y51	Z51	X52	Y52	Z52	
2121	10.6	475.35507	814.0343	-970.3692	476.11267	817.60266	-911.5119	458.85388	822.15717	-940.52393	239.88292	401.37891	189.74231	212.70773	401.60507	-2031.2012	291.94348	30.62525	-1383.9844	127.64823	44.380398	-1493.5038	192.5945	28.793856	-1541.801	156.31828	41.825619	-1522.2917	333.01935	40.661884	-481.83774	164.01674	49.572365	-385.19794	227.03664	30.222559	-335.10483	188.80988	46.460106	-355.22449	273.30908	69.03508	-495.4122	312.72113	71.391792	-425.7348	337.25201	204.64847	-475.39975	326.2803	269.21066	-477.04361	364.06644	255.09938	-507.82825	362.2153	298.32318	-513.1684	243.01224	63.212975	-1381.4121	284.99872	69.629135	-1441.7709	305.29065	310.71964	-1382.2559	345.10538	289.42792	-1360.2764	309.45468	246.49849	-1393.767	470.25043	685.32214	-1141.1688	382.43143	589.51697	-1228.2092	422.6196	557.17053	-1227.4868	435.07516	614.14679	-1196.6808	482.07599	688.8222	-735.49646	433.94394	571.30603	-647.01013	389.31787	596.74323	-639.78796	432.11807	630.8717	-675.62518	-85.883568	1159.6376	-784.64838	-27.56349	1236.6697	-843.69116	-55.183136	1203.2944	-960.32172	132.29474	1093.0135	-903.42548	415.95181	850.27185	-936.70514	76.689056	962.29779	-906.22333	122.67387	1021.2574	-729.19977	78.746002	1003.0541	-1059.8236	189.9016	485.03021	-699.23425	188.49881	485.05231	-658.18878	191.74097	397.4447	-713.90149	183.59769	480.8895	-1142.9641	182.54695	480.96997	-1191.2479	183.32579	394.5943	-1131.9885	140.14977	790.94397	-715.70844	166.90498	773.23615	-677.91461	146.57898	847.8913	-694.51526	125.36286	748.1449	-1087.0745	116.50531	822.56354	-1114.3579	134.43802	765.67572	-1133.1003
2122	10.605	475.61609	813.20081	-970.29657	476.39911	816.51239	-911.69482	459.12158	821.23816	-940.42822	239.5298	399.32056	189.88634	212.91486	399.96078	-2030.9167	291.9426	30.654879	-1384.0187	127.65157	44.360195	-1493.5262	192.58324	28.803804	-1541.8092	156.31859	41.832478	-1522.3086	333.02774	40.684414	-481.81055	164.02016	49.586361	-385.18802	227.04741	30.216675	-335.09583	188.81975	46.465736	-355.20947	273.32104	69.094444	-495.34753	312.6962	71.383957	-425.66107	336.71674	204.54747	-475.46725	325.54886	268.86978	-476.98727	363.99338	255.24937	-507.39725	362.00531	298.49683	-512.69141	243.00281	63.227825	-1381.438	285.00128	69.622612	-1441.8254	305.07309	310.76108	-1382.455	344.94641	289.52197	-1360.5496	309.2435	246.57809	-1393.9683	470.73312	684.79132	-1141.0602	382.57513	589.1991	-1228.1964	422.78238	556.80225	-1227.6708	435.39603	613.65979	-1196.687	482.83441	688.36847	-735.53687	434.4559	570.98236	-646.87085	389.97534	596.6073	-639.56531	432.85495	630.54712	-675.54852	-86.252525	1157.5188	-784.34265	-28.009501	1234.5837	-843.34332	-55.554264	1201.2257	-959.9787	131.89484	1091.1586	-903.1853	416.24551	849.29272	-936.58069	76.608856	960.26666	-906.33508	122.5325	1019.2628	-728.95239	78.373322	1001.081	-1059.5187	189.71902	483.13409	-699.11676	188.31114	483.17407	-658.08087	191.43219	395.57559	-713.79974	183.45415	479.08328	-1142.8922	182.41658	479.20355	-1191.1665	183.16431	392.78827	-1131.92	140.1662	789.0108	-715.5744	166.95706	771.3111	-677.83429	146.60487	845.97852	-694.41705	125.29517	746.22717	-1086.84	116.36926	820.6955	-1114.0397	134.44746	763.80231	-1132.8127
2123	10.61	475.86096	812.38403	-970.21588	476.7037	816.03247	-911.38861	459.35165	820.40002	-940.36145	239.13628	397.26044	190.00406	213.04984	398.52133	-2031.0176	291.94666	30.689304	-1384.082	127.65591	44.364223	-1493.5461	192.58897	28.794491	-1541.8362	156.3369	41.822887	-1522.3352	333.09369	40.774063	-481.46054	164.03792	49.588551	-385.1817	227.04823	30.209986	-335.09302	188.83017	46.472759	-355.19235	273.28915	69.159233	-495.31158	312.67523	71.371857	-425.56699	336.79382	204.84793	-474.92252	325.89148	269.36761	-476.22067	363.78394	255.40024	-507.01724	361.80533	298.67935	-512.2132	243.05377	63.258484	-1381.5361	285.01895	69.59433	-1441.9021	304.92041	310.82819	-1382.6857	344.90271	289.6228	-1360.8862	308.258	246.66594	-1393.9733	471.23187	684.26831	-1140.9043	382.82419	588.97675	-1228.3771	422.85953	556.49603	-1227.8684	435.73135	613.18207	-1196.7104	483.59286	687.96289	-735.59283	434.9718	570.7749	-646.69196	390.56824	596.59326	-639.34906	433.50793	630.37274	-675.41272	-86.603844	1155.3979	-783.98926	-28.372639	1232.4962	-843.0188	-55.966263	1199.1569	-959.63959	131.49561	1089.3002	-902.97955	416.49478	848.27869	-936.43402	76.534813	958.3313	-905.96777	122.42057	1017.2784	-728.7373	78.060669	999.11584	-1059.2319	188.99083	481.37512	-699.11469	188.10788	481.2774	-657.96918	191.17798	393.67963	-713.69678	183.53165	477.2507	-1142.7996	182.3179	477.43582	-1191.0598	183.01482	390.98926	-1131.8573	140.16628	787.09088	-715.33582	167.02278	769.42078	-677.65137	146.69344	844.06287	-694.24194	125.24587	744.37042	-1086.6249	116.12279	818.80737	-1113.907	134.25778	761.99829	-1132.6405
2124	10.615	476.06503	811.64142	-970.11206	476.91885	815.09253	-911.6225	459.50055	819.60645	-940.28937	238.68826	395.18326	190.0968	213.11665	396.95697	-2030.9248	291.97507	30.721312	-1384.1621	127.67842	44.36372	-1493.5802	192.58879	28.775425	-1541.8639	156.23686	41.877201	-1522.3359	333.08231	40.806831	-481.41544	164.04474	49.59568	-385.15591	227.05881	30.202522	-335.07401	188.82104	46.471653	-355.17194	273.29202	69.207832	-495.23572	312.63257	71.342674	-425.46191	337.57645	205.37503	-473.86572	325.66257	269.41071	-475.84436	363.5997	255.57214	-506.60294	361.54337	298.84622	-511.79898	243.10115	63.310936	-1381.6442	285.07455	69.586502	-1442.0348	304.85309	310.89093	-1382.9545	344.92325	289.69006	-1361.2747	309.04712	246.53342	-1394.0496	471.75189	683.75793	-1140.7627	383.04199	588.75604	-1228.1942	422.73575	556.36224	-1228.3394	436.0463	612.8017	-1196.7124	484.34595	687.57532	-735.62891	435.38599	570.64417	-646.51782	391.09888	596.66376	-639.22296	434.18024	630.16852	-675.31989	-86.924149	1153.3182	-783.62463	-28.729116	1230.4149	-842.67371	-56.392841	1197.1263	-959.29858	131.13521	1087.4602	-902.73285	416.69202	847.29919	-936.3075	76.433174	956.30371	-906.04797	122.25967	1015.3322	-728.49854	77.750626	997.15869	-1058.9619	188.83215	479.47711	-699.00531	187.92081	479.39194	-657.84631	190.99881	391.79581	-713.59961	183.4207	475.49442	-1142.6962	182.25175	475.66693	-1190.9666	182.89188	389.24051	-1131.7531	140.10278	785.17517	-715.06451	167.03694	767.52222	-677.42072	146.77757	842.18762	-694.07825	125.23155	742.53503	-1086.4495	116.06599	816.98834	-1113.6974	134.19997	760.19922	-1132.4625
2125	10.62	476.17957	810.85095	-970.05096	476.86728	814.42639	-911.36102	459.64172	818.7934	-940.22552	238.22124	393.10974	190.22957	213.20264	395.29587	-2030.6058	291.99002	30.74139	-1384.2335	127.58923	44.521664	-1493.6515	192.61803	28.761204	-1541.9099	156.2554	41.888641	-1522.3812	333.03156	40.808372	-481.59741	164.04407	49.595009	-385.13611	227.05788	30.197672	-335.05533	188.83459	46.468987	-355.1615	273.43005	69.087387	-495.27774	312.57425	71.340309	-425.33572	336.26328	204.81329	-474.61758	324.87448	269.05286	-475.8511	363.42603	255.71489	-506.27457	361.31326	298.99033	-511.36154	243.15063	63.376575	-1381.743	285.13721	69.577103	-1442.1912	304.85275	310.93307	-1383.2654	344.98373	289.7803	-1361.6631	308.17969	246.7682	-1394.5178	472.24182	683.21484	-1140.6082	383.39014	588.61542	-1228.1938	423.33746	555.97974	-1228.1722	436.41019	612.52087	-1196.7332	485.07007	687.2572	-735.65363	435.73505	570.56512	-646.34723	391.53625	596.75543	-639.16504	434.77731	629.95758	-675.33173	-87.216927	1151.2426	-783.26672	-29.031462	1228.3293	-842.33533	-56.793983	1195.0739	-958.9657	130.76199	1085.61	-902.5498	416.7702	846.18347	-936.12732	76.344276	954.29889	-905.86456	122.12215	1013.4056	-728.3067	77.458206	995.23547	-1058.7341	188.69664	477.57883	-698.88904	187.77519	477.49689	-657.78308	190.82945	389.90753	-713.50079	183.38744	473.71127	-1142.5975	182.23239	473.90411	-1190.8682	182.81288	387.46942	-1131.6703	140.01414	783.28516	-714.77655	167.07893	765.64978	-677.22424	146.78067	840.3172	-693.84436	125.21864	740.73206	-1086.2915	116.01266	815.18427	-1113.5239	134.17061	758.40204	-1132.3121
